<svg width="290" height="241" viewBox="0 0 290 241" fill="none" xmlns="http://www.w3.org/2000/svg">
<path d="M43.096 218.478C99.536 247.959 191.002 247.959 247.429 218.478C303.855 188.996 303.869 141.215 247.429 111.733C190.989 82.2516 99.5227 82.2583 43.096 111.733C-13.3307 141.208 -13.3241 189.003 43.096 218.478Z" fill="#FADEDF"/>
<path d="M26.3564 171.48H28.7336C29.8231 167.842 30.5373 164.102 30.865 160.318C31.3829 153.313 27.9899 142.589 21.7748 138.997C15.5598 135.405 12.1933 139.847 14.2783 143.645C16.3632 147.443 23.395 158.246 23.488 167.542L26.3564 171.48Z" fill="#E84C4F"/>
<path d="M25.7854 171.48H26.4494C27.0981 166.892 27.0981 162.236 26.4494 157.649C25.3737 148.559 22.3857 144.336 19.6102 141.401C19.5494 141.337 19.4656 141.299 19.3772 141.297C19.2888 141.294 19.203 141.327 19.1387 141.388C19.0744 141.448 19.0369 141.532 19.0344 141.62C19.0319 141.709 19.0647 141.795 19.1254 141.859C21.8279 144.708 24.7362 148.824 25.7654 157.722C26.4232 162.284 26.4299 166.916 25.7854 171.48Z" fill="white"/>
<path d="M26.549 171.48C25.3273 165.716 19.7762 158.864 14.5373 157.682C8.46168 156.354 5.50688 159.561 6.37672 162.33C7.24656 165.099 12.0473 166.387 16.7086 168.558C18.2781 169.285 19.7128 170.273 20.9515 171.48H26.549Z" fill="#E84C4F"/>
<path d="M24.338 171.48H25.0484C22.4788 165.019 16.6356 160.411 11.8548 159.986C11.8115 159.982 11.7677 159.986 11.7261 159.998C11.6845 160.011 11.6458 160.032 11.6123 160.06C11.5789 160.088 11.5514 160.122 11.5315 160.161C11.5115 160.199 11.4995 160.242 11.4962 160.285C11.4907 160.328 11.4941 160.373 11.5064 160.415C11.5187 160.457 11.5395 160.496 11.5675 160.529C11.5956 160.563 11.6302 160.59 11.6694 160.61C11.7085 160.63 11.7513 160.641 11.795 160.644C16.3102 161.049 21.828 165.378 24.338 171.48Z" fill="white"/>
<path d="M240.895 110.731L245.868 113.34L246.287 110.226C243.823 103.281 245.848 95.4055 248.511 92.1254C251.174 88.8452 250.662 86.4349 249.7 85.3592C248.737 84.2835 245.085 83.4668 241.473 87.6898C237.86 91.9129 237.03 97.0389 237.635 102.212C238.02 105.445 239.72 108.765 240.895 110.731Z" fill="#E84C4F"/>
<path opacity="0.2" d="M240.895 110.731L245.868 113.34L246.287 110.226C243.823 103.281 245.848 95.4055 248.511 92.1254C251.174 88.8452 250.662 86.4349 249.7 85.3592C248.737 84.2835 245.085 83.4668 241.473 87.6898C237.86 91.9129 237.03 97.0389 237.635 102.212C238.02 105.445 239.72 108.765 240.895 110.731Z" fill="black"/>
<path d="M242.947 111.806L243.929 112.324C243.92 112.306 243.909 112.288 243.896 112.271C242.488 110.598 240.669 102.404 241.433 97.6034C242.376 91.6739 245.417 87.8027 248.02 86.1626C248.051 86.143 248.079 86.1172 248.101 86.0867C248.123 86.0562 248.138 86.0216 248.146 85.9851C248.154 85.9485 248.155 85.9107 248.148 85.8739C248.141 85.8371 248.127 85.8021 248.106 85.7709C248.064 85.7074 247.999 85.6629 247.924 85.6468C247.85 85.6306 247.772 85.6442 247.708 85.6846C245.052 87.391 241.838 91.395 240.862 97.517C240.158 101.986 241.566 109.064 242.947 111.806Z" fill="white"/>
<path d="M245.968 98.8783C247.422 102.444 247.415 104.19 245.045 104.555C242.907 104.874 240.31 107.47 242.721 111.687L256.824 119.084C256.86 118.295 257.054 117.523 257.397 116.812C257.739 116.101 258.222 115.466 258.816 114.947C261.134 112.63 263.272 110.883 262.94 108.307C262.608 105.731 260.37 103.247 259.998 101.003C259.626 98.7588 260.768 97.4772 263.205 94.9607C265.642 92.4441 267.853 88.5398 264.6 86.7603C261.346 84.9808 257.621 88.0285 256.067 90.0803C254.513 92.132 253.092 93.0351 250.031 92.8624C246.97 92.6898 244.514 95.3126 245.968 98.8783Z" fill="#E84C4F"/>
<path d="M249.959 115.485C249.892 104.542 257.734 91.7269 262.096 89.1373C262.161 89.0962 262.207 89.032 262.225 88.958C262.244 88.8839 262.233 88.8055 262.196 88.7389C262.156 88.675 262.093 88.629 262.02 88.6104C261.947 88.5919 261.87 88.6022 261.804 88.6393C257.382 91.2953 249.474 104.117 249.387 115.199L249.959 115.485Z" fill="white"/>
<path d="M252.057 104.111C251.997 104.124 251.934 104.117 251.879 104.091C251.823 104.064 251.778 104.02 251.751 103.964C250.485 101.601 249.418 99.1358 248.564 96.5941C248.553 96.5583 248.549 96.5207 248.552 96.4833C248.555 96.446 248.566 96.4096 248.583 96.3763C248.6 96.343 248.624 96.3134 248.652 96.2893C248.681 96.2651 248.714 96.2469 248.75 96.2355C248.786 96.2242 248.823 96.22 248.861 96.2232C248.898 96.2264 248.935 96.237 248.968 96.2542C249.001 96.2715 249.031 96.2951 249.055 96.3238C249.079 96.3525 249.097 96.3857 249.109 96.4215C249.955 98.9279 251.008 101.36 252.256 103.692C252.291 103.76 252.299 103.839 252.276 103.913C252.254 103.986 252.204 104.047 252.136 104.084L252.057 104.111Z" fill="white"/>
<path d="M250.171 110.817C250.116 110.827 250.06 110.822 250.009 110.802C249.957 110.782 249.912 110.748 249.879 110.704C249.835 110.641 249.818 110.562 249.832 110.486C249.845 110.411 249.889 110.343 249.952 110.299C252.811 108.297 256.28 107.358 259.759 107.643C259.835 107.653 259.904 107.692 259.95 107.752C259.997 107.813 260.018 107.889 260.008 107.965C259.998 108.041 259.959 108.11 259.899 108.156C259.838 108.203 259.762 108.224 259.686 108.214C256.355 107.961 253.038 108.853 250.284 110.744C250.251 110.776 250.213 110.8 250.171 110.817Z" fill="white"/>
<path d="M21.3698 168.658L93.8387 210.49C94.7297 210.942 95.7148 211.178 96.7139 211.178C97.713 211.178 98.698 210.942 99.589 210.49L258.371 118.858C259.958 117.942 259.958 116.454 258.371 115.538L185.902 73.7061C185.012 73.2509 184.027 73.0135 183.027 73.0135C182.028 73.0135 181.042 73.2509 180.152 73.7061L21.3698 165.338C19.7828 166.254 19.7828 167.742 21.3698 168.658Z" fill="#455A64"/>
<path d="M60.5392 188.08C61.7747 188.703 63.1393 189.028 64.5232 189.028C65.9071 189.028 67.2717 188.703 68.5072 188.08C70.7183 186.805 70.7183 184.76 68.5072 183.465C67.2726 182.839 65.9076 182.512 64.5232 182.512C63.1387 182.512 61.7738 182.839 60.5392 183.465C58.3281 184.76 58.3281 186.818 60.5392 188.08Z" fill="#263238"/>
<path d="M95.2 210.49L22.7311 168.658C21.3101 167.835 21.164 166.56 22.2862 165.643C21.5774 166.204 20.9947 166.908 20.576 167.709C20.1572 168.509 19.9119 169.389 19.856 170.291V172.994C19.9105 173.991 20.1992 174.962 20.6987 175.827C21.1982 176.693 21.8944 177.428 22.7311 177.974L95.2 219.806C96.0861 220.269 97.0759 220.497 98.0752 220.47V211.181C97.0735 211.2 96.0837 210.962 95.2 210.49Z" fill="#37474F"/>
<path d="M258.365 128.167C259.203 127.623 259.901 126.888 260.402 126.023C260.903 125.157 261.192 124.186 261.246 123.187V120.485C261.193 119.582 260.948 118.7 260.527 117.899C260.107 117.098 259.522 116.395 258.81 115.837C259.938 116.753 259.792 118.028 258.371 118.845L99.589 210.49C98.7023 210.951 97.713 211.18 96.7139 211.154V220.496C97.713 220.522 98.7023 220.294 99.589 219.832L258.365 128.167Z" fill="#263238"/>
<path d="M105.778 201.825L36.4161 161.759C35.4599 161.208 35.4599 160.311 36.4161 159.767L170.491 82.338C171.026 82.0662 171.617 81.9246 172.217 81.9246C172.817 81.9246 173.409 82.0662 173.944 82.338L243.332 122.397C244.281 122.948 244.281 123.838 243.332 124.389L109.204 201.825C108.672 202.092 108.086 202.231 107.491 202.231C106.896 202.231 106.309 202.092 105.778 201.825Z" fill="white"/>
<path d="M77.8297 179.455L85.9239 174.78L83.2281 173.226L75.1339 177.894L77.8297 179.455Z" fill="#E84C4F"/>
<path d="M174.933 123.393L183.027 118.719L180.325 117.165L172.237 121.839L174.933 123.393Z" fill="#E84C4F"/>
<path d="M191.115 114.051L199.209 109.376L196.513 107.822L188.419 112.49L191.115 114.051Z" fill="#E84C4F"/>
<path d="M217.09 97.6831C217.405 97.8403 217.751 97.9221 218.103 97.9221C218.454 97.9221 218.801 97.8403 219.116 97.6831C219.237 97.6414 219.343 97.5627 219.418 97.4579C219.493 97.3532 219.533 97.2276 219.533 97.0988C219.533 96.97 219.493 96.8444 219.418 96.7396C219.343 96.6349 219.237 96.5561 219.116 96.5145C218.802 96.3542 218.455 96.2706 218.103 96.2706C217.751 96.2706 217.404 96.3542 217.09 96.5145C216.969 96.5561 216.863 96.6349 216.788 96.7396C216.713 96.8444 216.673 96.97 216.673 97.0988C216.673 97.2276 216.713 97.3532 216.788 97.4579C216.863 97.5627 216.969 97.6414 217.09 97.6831Z" fill="#263238"/>
<path d="M220.324 106.853C220.951 107.17 221.644 107.336 222.346 107.336C223.049 107.336 223.741 107.17 224.368 106.853C225.483 106.189 225.483 105.16 224.368 104.516C223.741 104.198 223.049 104.033 222.346 104.033C221.644 104.033 220.951 104.198 220.324 104.516C219.209 105.16 219.209 106.209 220.324 106.853Z" fill="#263238"/>
<path d="M217.469 102.789C218.213 102.358 218.173 101.64 217.383 101.182L204.103 93.4998C203.675 93.2707 203.199 93.1464 202.715 93.1372C202.23 93.1279 201.75 93.234 201.314 93.4467C200.57 93.8783 200.61 94.5954 201.4 95.0536L214.72 102.736C215.142 102.958 215.611 103.079 216.088 103.088C216.565 103.097 217.038 102.995 217.469 102.789Z" fill="#263238"/>
<path d="M89.2239 173.997C95.937 177.861 111.674 175.052 124.376 167.715L159.269 147.576C171.972 140.239 176.819 131.169 170.092 127.311C163.366 123.453 147.616 126.275 134.9 133.605L100.074 153.718C87.378 161.049 82.5175 170.152 89.2239 173.997Z" fill="#FADEDF"/>
<path d="M190.816 5.16128H190.849L196.593 1.84128H196.639C200.258 0.00864029 205.092 0.513284 210.298 3.89968C220.762 10.6326 228.75 26.1702 228.146 38.5937C227.841 44.7888 225.49 49.0384 221.858 50.9109H221.825L216.074 54.2309H216.035C212.416 56.0702 207.575 55.5589 202.363 52.1791C191.905 45.4395 183.917 29.9086 184.521 17.4851C184.84 11.2834 187.224 7.03376 190.816 5.16128Z" fill="#37474F"/>
<path d="M216.367 54.0583L221.845 50.8711H221.885C225.483 48.992 227.861 44.7424 228.166 38.5539C228.432 33.0161 226.991 26.8608 224.388 21.1438L218.638 24.4638C221.247 30.1808 222.688 36.3361 222.416 41.8805C222.13 47.9229 219.846 52.126 216.367 54.0583Z" fill="#263238"/>
<path d="M202.389 52.1724C191.931 45.4328 183.944 29.9019 184.548 17.4784C185.152 5.05498 194.136 0.440185 204.574 7.17315C215.012 13.9061 223.027 29.4437 222.422 41.8671C221.818 54.2906 212.847 58.9054 202.389 52.1724Z" fill="#455A64"/>
<path d="M211.154 51.2961C217.323 51.5949 218.326 44.6561 218.458 41.6681C218.99 30.7121 211.646 16.4361 202.423 10.4933C200.458 9.1167 198.171 8.27049 195.783 8.03645C189.621 7.73765 188.618 14.6765 188.479 17.6645C187.948 28.6205 195.285 42.8965 204.514 48.8725C206.479 50.249 208.767 51.0952 211.154 51.3293V51.2961Z" fill="#FAFAFA"/>
<path d="M202.277 31.7279C202.349 31.7282 202.421 31.7146 202.489 31.6881C202.628 31.6431 202.748 31.5537 202.831 31.4337C202.913 31.3137 202.954 31.1697 202.947 31.0241V15.201C202.947 15.0249 202.877 14.856 202.753 14.7315C202.628 14.6069 202.459 14.537 202.283 14.537C202.107 14.537 201.938 14.6069 201.814 14.7315C201.689 14.856 201.619 15.0249 201.619 15.201V29.0985L194.229 19.6033C194.12 19.4624 193.959 19.3707 193.782 19.3483C193.605 19.3259 193.427 19.3746 193.286 19.4838C193.145 19.593 193.053 19.7536 193.031 19.9305C193.009 20.1073 193.057 20.2858 193.166 20.4267L201.765 31.469C201.826 31.5476 201.903 31.6117 201.992 31.6565C202.08 31.7013 202.177 31.7257 202.277 31.7279Z" fill="#37474F"/>
<path d="M206.088 43.4343C206.119 43.4403 206.15 43.4403 206.181 43.4343C206.251 43.4127 206.311 43.3647 206.347 43.3003C206.383 43.236 206.392 43.1603 206.374 43.089L202.649 30.546C202.627 30.4747 202.579 30.4147 202.513 30.3792C202.448 30.3437 202.371 30.3356 202.3 30.3568C202.229 30.3779 202.169 30.4265 202.133 30.4919C202.098 30.5573 202.09 30.634 202.111 30.7054L205.829 43.2483C205.848 43.3021 205.883 43.3487 205.929 43.3819C205.976 43.4152 206.031 43.4334 206.088 43.4343Z" fill="#E84C4F"/>
<path d="M202.489 27.8834C201.254 27.0933 200.198 27.6377 200.132 29.0985C200.136 29.8953 200.328 30.6799 200.693 31.3883C201.057 32.0968 201.584 32.7091 202.23 33.1755C203.458 33.9723 204.514 33.4278 204.587 31.967C204.582 31.1696 204.389 30.3846 204.024 29.6754C203.66 28.9661 203.134 28.3523 202.489 27.8834Z" fill="#E84C4F"/>
<path d="M94.0181 170.112L102.106 165.438L99.4098 163.884L91.3223 168.552L94.0181 170.112Z" fill="#E84C4F"/>
<path d="M110.2 160.77L118.294 156.095L115.591 154.541L107.504 159.209L110.2 160.77Z" fill="#E84C4F"/>
<path d="M106.873 158.864C106.873 162.768 104.137 167.496 100.758 169.488C98.9582 170.53 97.3381 170.564 96.2226 169.78C95.7728 169.427 95.4034 168.982 95.139 168.475C94.8745 167.967 94.721 167.41 94.6887 166.839C94.9158 166.733 95.1374 166.615 95.3527 166.487C98.7325 164.541 101.468 159.794 101.468 155.863C101.471 155.572 101.454 155.281 101.415 154.993C101.922 154.725 102.478 154.565 103.05 154.524C103.621 154.483 104.195 154.561 104.735 154.754C106.063 155.312 106.873 156.752 106.873 158.864Z" fill="#263238"/>
<path d="M107.424 150.843L107.311 150.776C105.611 149.873 103.327 150.039 100.758 151.513C95.5452 154.521 91.3156 161.839 91.3156 167.861C91.3156 170.889 92.3846 173.007 94.111 173.99C95.8374 174.973 98.168 174.807 100.751 173.326C105.963 170.318 110.186 162.994 110.186 156.972C110.193 153.944 109.144 151.826 107.424 150.843ZM100.784 169.475C98.9781 170.517 97.358 170.55 96.2424 169.76C95.2597 169.096 94.6621 167.768 94.6621 165.942C94.6621 162.045 97.4044 157.31 100.784 155.318C102.325 154.428 103.726 154.276 104.768 154.734C106.056 155.285 106.866 156.726 106.866 158.851C106.873 162.782 104.137 167.529 100.758 169.488L100.784 169.475Z" fill="#37474F"/>
<path d="M105.08 154.913L105.007 154.873C103.905 154.282 102.411 154.395 100.758 155.345C97.3779 157.297 94.6356 162.045 94.6356 165.969C94.6356 167.961 95.2996 169.289 96.4483 169.953C97.5971 170.617 99.1043 170.484 100.758 169.515C104.137 167.562 106.873 162.815 106.873 158.891C106.873 156.925 106.189 155.544 105.08 154.913ZM100.758 168.094C99.3102 168.93 98.0087 168.957 97.1057 168.319C96.3222 167.768 95.8375 166.712 95.8375 165.252C95.9305 163.545 96.4245 161.884 97.2793 160.404C98.1342 158.924 99.3259 157.666 100.758 156.733C101.223 156.408 101.757 156.196 102.319 156.114C102.88 156.032 103.453 156.083 103.991 156.261C105.027 156.706 105.678 157.861 105.678 159.581C105.585 161.287 105.092 162.947 104.237 164.426C103.382 165.905 102.19 167.162 100.758 168.094Z" fill="#E84C4F"/>
<path d="M126.381 151.421L134.476 146.753L131.78 145.192L123.686 149.867L126.381 151.421Z" fill="#E84C4F"/>
<path d="M142.57 142.078L150.657 137.41L147.961 135.85L139.867 140.524L142.57 142.078Z" fill="#E84C4F"/>
<path d="M158.751 132.736L166.839 128.068L164.143 126.507L156.049 131.182L158.751 132.736Z" fill="#E84C4F"/>
<path d="M118.48 89.2901C118.565 89.1771 118.683 89.094 118.818 89.0529C118.953 89.0117 119.098 89.0147 119.231 89.0613C119.364 89.108 119.479 89.1958 119.559 89.3122C119.639 89.4285 119.679 89.5673 119.675 89.7084C119.727 90.0863 119.689 90.4712 119.563 90.8314C119.437 91.1915 119.227 91.5167 118.951 91.7801C118.42 92.2382 117.882 92.0523 117.756 91.3618C117.705 90.9838 117.744 90.5991 117.869 90.239C117.995 89.879 118.204 89.5538 118.48 89.2901Z" fill="#E84C4F"/>
<path d="M124.708 92.225L119.297 89.0975L118.108 91.9594L123.54 95.0935L124.708 92.225Z" fill="#E84C4F"/>
<path d="M123.878 92.4042C124.409 91.9527 124.941 92.1386 125.073 92.8292C125.122 93.2065 125.082 93.5901 124.955 93.9489C124.828 94.3077 124.618 94.6315 124.343 94.8942C123.812 95.3524 123.274 95.1665 123.148 94.4759C123.099 94.0975 123.14 93.7131 123.267 93.3533C123.394 92.9936 123.603 92.6685 123.878 92.4042Z" fill="#E84C4F"/>
<path d="M165.471 118.592C165.471 118.725 165.471 118.845 165.471 118.978C165.471 119.243 165.471 119.515 165.471 119.788C164.395 119.329 162.994 119.482 161.454 120.372C158.074 122.324 155.332 127.072 155.332 130.996C155.332 132.815 155.929 134.13 156.912 134.814C156.636 135.01 156.35 135.192 156.056 135.358L155.743 135.518L154.807 139.044L149.389 136.022C147.676 135.033 146.62 132.922 146.62 129.907C146.62 123.885 150.843 116.567 156.056 113.553C158.632 112.065 160.963 111.913 162.696 112.889L168.008 115.863L168.12 115.93L165.471 118.592Z" fill="#455A64"/>
<path d="M168.114 115.87L168.001 115.804C166.301 114.901 164.017 115.067 161.447 116.541C156.235 119.549 152.005 126.866 152.005 132.888C152.005 135.916 153.074 138.034 154.801 139.017C156.527 140 158.858 139.834 161.441 138.353C166.653 135.345 170.876 128.021 170.876 121.999C170.896 118.971 169.827 116.853 168.114 115.87ZM161.474 134.502C159.668 135.544 158.048 135.577 156.932 134.787C155.949 134.123 155.352 132.795 155.352 130.969C155.352 127.072 158.094 122.337 161.474 120.345C163.014 119.456 164.415 119.303 165.491 119.761C166.779 120.312 167.589 121.753 167.589 123.878C167.576 127.809 164.827 132.556 161.447 134.502H161.474Z" fill="#37474F"/>
<path d="M167.576 123.904C167.576 127.809 164.84 132.536 161.461 134.528C159.661 135.571 158.041 135.604 156.925 134.821C156.476 134.467 156.106 134.022 155.842 133.515C155.577 133.008 155.424 132.45 155.392 131.879C155.619 131.773 155.84 131.656 156.056 131.527C159.435 129.582 162.171 124.834 162.171 120.903C162.174 120.612 162.156 120.322 162.118 120.033C162.624 119.765 163.181 119.606 163.753 119.564C164.324 119.523 164.898 119.602 165.438 119.794C166.753 120.352 167.576 121.78 167.576 123.904Z" fill="#263238"/>
<path d="M165.77 119.94L165.697 119.894C164.595 119.31 163.094 119.416 161.447 120.372C158.068 122.324 155.325 127.065 155.325 130.996C155.325 132.988 155.989 134.316 157.138 134.98C158.287 135.644 159.794 135.504 161.447 134.535C164.827 132.59 167.563 127.842 167.563 123.911C167.576 121.952 166.912 120.578 165.77 119.94ZM161.447 133.114C159.993 133.957 158.692 133.984 157.795 133.347C157.005 132.795 156.527 131.74 156.527 130.279C156.62 128.572 157.114 126.911 157.969 125.431C158.824 123.951 160.015 122.693 161.447 121.76C162.682 121.043 163.811 120.916 164.674 121.288C165.71 121.733 166.361 122.889 166.361 124.608C166.269 126.313 165.776 127.971 164.922 129.449C164.068 130.927 162.878 132.183 161.447 133.114Z" fill="#E84C4F"/>
<path d="M156.049 125.89L171.321 117.072C173.094 116.043 167.337 110.033 163.054 109.628C160.696 109.344 158.305 109.57 156.042 110.292C156.042 110.292 159.303 114.469 158.745 116.839C158.187 119.21 156.049 125.89 156.049 125.89Z" fill="#E84C4F"/>
<path d="M134.476 100.97C134.476 100.97 156.613 112.138 157.57 112.809C158.526 113.48 157.57 121.268 156.049 125.89C154.528 130.511 152.191 137.616 151.255 139.608C150.319 141.6 149.097 142.344 146.853 143.638L130.917 152.848L109.343 155.478L100.778 150.83L103.009 136.813C103.009 136.813 125.937 124.615 129.077 122.802C132.218 120.989 141.507 112.484 134.476 100.97Z" fill="#E84C4F"/>
<path opacity="0.2" d="M134.476 100.97C134.476 100.97 156.613 112.138 157.57 112.809C158.526 113.48 157.57 121.268 156.049 125.89C154.528 130.511 152.191 137.616 151.255 139.608C150.319 141.6 149.097 142.344 146.853 143.638L130.917 152.848L109.343 155.478L100.778 150.83L103.009 136.813C103.009 136.813 125.937 124.615 129.077 122.802C132.218 120.989 141.507 112.484 134.476 100.97Z" fill="black"/>
<path d="M157.995 123.227C159.987 117.875 161.474 113.44 161.222 110.445C160.916 106.893 159.588 103.991 153.732 102.53C147.875 101.069 139.688 101.096 139.688 101.096L137.198 102.537C137.198 102.537 154.037 112.298 155.949 113.36C157.118 114.024 158.366 116.952 156.076 125.896L156.467 126.122C156.66 126.242 157.357 124.947 157.995 123.227Z" fill="#E84C4F"/>
<path opacity="0.3" d="M157.995 123.227C159.987 117.875 161.474 113.44 161.222 110.445C160.916 106.893 159.588 103.991 153.732 102.53C147.875 101.069 139.688 101.096 139.688 101.096L137.198 102.537C137.198 102.537 154.037 112.298 155.949 113.36C157.118 114.024 158.366 116.952 156.076 125.896L156.467 126.122C156.66 126.242 157.357 124.947 157.995 123.227Z" fill="white"/>
<path d="M145.239 107.198L147.961 105.644C147.961 105.644 147.802 96.209 143.831 93.9182C139.861 91.6274 126.381 93.1878 126.381 93.1878L123.686 94.7415L145.239 107.198Z" fill="#E84C4F"/>
<path d="M136.408 96.0761C135.113 96.8264 135.113 98.0349 136.408 98.7786C137.134 99.1482 137.937 99.3409 138.752 99.3409C139.566 99.3409 140.37 99.1482 141.096 98.7786C142.384 98.0349 142.384 96.8198 141.096 96.0761C140.369 95.7095 139.566 95.5186 138.752 95.5186C137.938 95.5186 137.135 95.7095 136.408 96.0761Z" fill="#F0F0F0"/>
<path d="M140.551 100.585C139.641 101.116 139.641 101.973 140.551 102.497C141.065 102.76 141.634 102.897 142.211 102.897C142.788 102.897 143.357 102.76 143.871 102.497C144.787 101.973 144.787 101.116 143.871 100.585C143.356 100.325 142.788 100.19 142.211 100.19C141.635 100.19 141.066 100.325 140.551 100.585Z" fill="#F0F0F0"/>
<path d="M130.12 94.8743C129.204 95.3988 129.204 96.2554 130.12 96.7866C130.635 97.0463 131.203 97.1816 131.78 97.1816C132.356 97.1816 132.925 97.0463 133.44 96.7866C134.356 96.2554 134.356 95.3988 133.44 94.8743C132.926 94.6114 132.357 94.4744 131.78 94.4744C131.203 94.4744 130.634 94.6114 130.12 94.8743Z" fill="#F0F0F0"/>
<path d="M145.664 104.463C146.195 104.004 146.726 104.19 146.859 104.881C146.908 105.259 146.867 105.644 146.741 106.004C146.614 106.363 146.404 106.689 146.129 106.953C146.044 107.066 145.926 107.149 145.791 107.19C145.656 107.231 145.511 107.228 145.378 107.181C145.245 107.135 145.13 107.047 145.05 106.93C144.97 106.814 144.929 106.675 144.934 106.534C144.882 106.156 144.922 105.771 145.049 105.41C145.176 105.05 145.387 104.725 145.664 104.463Z" fill="#E84C4F"/>
<path d="M151.859 107.397L146.441 104.27L145.259 107.132L150.684 110.259L151.859 107.397Z" fill="#E84C4F"/>
<path d="M151.022 107.577C151.107 107.464 151.225 107.381 151.36 107.339C151.495 107.298 151.64 107.301 151.773 107.348C151.906 107.395 152.021 107.482 152.101 107.599C152.181 107.715 152.222 107.854 152.218 107.995C152.268 108.373 152.228 108.759 152.101 109.119C151.974 109.479 151.764 109.804 151.487 110.067C150.956 110.525 150.425 110.332 150.292 109.648C150.243 109.27 150.283 108.885 150.41 108.525C150.537 108.165 150.747 107.84 151.022 107.577Z" fill="#E84C4F"/>
<path d="M151.022 107.577C151.107 107.464 151.225 107.381 151.36 107.339C151.495 107.298 151.64 107.301 151.773 107.348C151.906 107.395 152.021 107.482 152.101 107.599C152.181 107.715 152.222 107.854 152.218 107.995C152.268 108.373 152.228 108.759 152.101 109.119C151.974 109.479 151.764 109.804 151.487 110.067C150.956 110.525 150.425 110.332 150.292 109.648C150.243 109.27 150.283 108.885 150.41 108.525C150.537 108.165 150.747 107.84 151.022 107.577Z" fill="black"/>
<path d="M104.782 153.552C104.782 153.685 104.782 153.804 104.782 153.937C104.782 154.203 104.782 154.475 104.782 154.747C103.706 154.289 102.305 154.442 100.798 155.332C97.4177 157.284 94.6754 162.031 94.6754 165.956C94.6754 167.775 95.273 169.09 96.2557 169.774C95.9798 169.97 95.6939 170.151 95.3992 170.318L95.0871 170.477L94.1509 174.003L88.7326 170.982C87.0195 169.993 85.9637 167.881 85.9637 164.867C85.9637 158.844 90.1868 151.527 95.3992 148.512C97.9755 147.025 100.306 146.872 102.039 147.848L107.351 150.823L107.464 150.889L104.782 153.552Z" fill="#455A64"/>
<path d="M88.6198 143.014L84.576 157.031L92.6702 161.706L96.86 147.775L88.6198 143.014Z" fill="#E84C4F"/>
<path opacity="0.2" d="M88.6198 143.014L84.576 157.031L92.6702 161.706L96.86 147.775L88.6198 143.014Z" fill="black"/>
<path d="M88.6198 143.014C88.6198 143.014 93.208 146.912 96.86 147.775C101.654 148.937 109.277 149.063 111.979 149.249C116.109 149.535 119.23 149.528 120.691 149.004C122.583 148.34 127.67 145.385 129.077 144.575C131.773 143.021 132.922 136.905 125.492 135.232C120.468 134.191 115.35 133.668 110.22 133.672L88.6198 143.014Z" fill="#E84C4F"/>
<path d="M134.376 141.222C134.145 141.799 133.989 142.404 133.911 143.021C133.697 143.662 133.647 144.347 133.765 145.013C134.271 145.85 135.068 146.472 136.003 146.759C136.676 146.909 137.373 146.919 138.051 146.787C138.728 146.656 139.371 146.386 139.94 145.996C141.315 145.172 142.35 144.176 144.303 143.619C145.698 143.323 147.012 142.727 148.154 141.872C149.236 141.002 150.684 138.599 148.612 138.041C146.54 137.483 142.038 139.449 137.935 139.628L134.376 141.222Z" fill="#37474F"/>
<path d="M134.376 138.658V141.726C134.502 142.071 134.72 142.374 135.007 142.603C135.294 142.831 135.639 142.976 136.003 143.021C136.336 143.07 136.677 143.033 136.992 142.915C137.49 142.725 137.921 142.393 138.232 141.962C138.543 141.53 138.722 141.016 138.745 140.484L138.865 138.658H134.376Z" fill="#FFA8A7"/>
<path d="M140.219 119.688C140.219 123.506 139.143 140.013 139.143 140.013C139.143 140.013 137.583 142.005 134.19 140.013L133.048 121.567L140.219 119.688Z" fill="#37474F"/>
<path d="M122.424 135.956L133.048 129.834C133.483 129.605 133.848 129.262 134.102 128.841C134.357 128.421 134.491 127.938 134.491 127.447C134.491 126.955 134.357 126.473 134.102 126.052C133.848 125.631 133.483 125.288 133.048 125.06L125.133 120.491C124.688 120.266 124.195 120.148 123.696 120.148C123.196 120.148 122.704 120.266 122.258 120.491L111.634 126.613C111.201 126.844 110.838 127.187 110.585 127.608C110.332 128.028 110.198 128.51 110.198 129.001C110.198 129.491 110.332 129.973 110.585 130.393C110.838 130.814 111.201 131.158 111.634 131.388L119.549 135.956C119.994 136.182 120.487 136.299 120.986 136.299C121.486 136.299 121.978 136.182 122.424 135.956Z" fill="#E84C4F"/>
<path d="M122.424 135.956L133.048 129.834C133.483 129.605 133.848 129.262 134.102 128.841C134.357 128.421 134.491 127.938 134.491 127.447C134.491 126.955 134.357 126.473 134.102 126.052C133.848 125.631 133.483 125.288 133.048 125.06L125.133 120.491C124.688 120.266 124.195 120.148 123.696 120.148C123.196 120.148 122.704 120.266 122.258 120.491L111.634 126.613C111.201 126.844 110.838 127.187 110.585 127.608C110.332 128.028 110.198 128.51 110.198 129.001C110.198 129.491 110.332 129.973 110.585 130.393C110.838 130.814 111.201 131.158 111.634 131.388L119.549 135.956C119.994 136.182 120.487 136.299 120.986 136.299C121.486 136.299 121.978 136.182 122.424 135.956Z" fill="white"/>
<path d="M111.634 128.273L119.549 132.842C119.994 133.068 120.487 133.185 120.986 133.185C121.486 133.185 121.978 133.068 122.424 132.842L133.048 126.72C133.221 126.661 133.372 126.549 133.479 126.4C133.586 126.251 133.643 126.073 133.643 125.89C133.643 125.707 133.586 125.528 133.479 125.379C133.372 125.23 133.221 125.119 133.048 125.06L125.133 120.491C124.688 120.266 124.195 120.148 123.696 120.148C123.196 120.148 122.704 120.266 122.258 120.491L111.634 126.613C111.461 126.672 111.31 126.784 111.203 126.933C111.097 127.082 111.039 127.26 111.039 127.443C111.039 127.627 111.097 127.805 111.203 127.954C111.31 128.103 111.461 128.215 111.634 128.273Z" fill="#E84C4F"/>
<path d="M118.108 87.6367L116.76 93.1944L110.97 93.5463L112.218 85.8439L118.108 87.6367Z" fill="#FFA8A7"/>
<path d="M123.752 83.4535C123.752 83.4535 124.416 85.8041 124.144 85.9369C123.726 86.0006 123.3 86.0006 122.882 85.9369L123.752 83.4535Z" fill="#F28F8F"/>
<path d="M122.643 75.9503C123.573 77.0459 124.423 78.8454 123.765 83.2543C123.048 88.075 122.158 88.6327 121.441 89.0975C120.505 89.7084 116.76 89.383 115.704 88.6128C114.436 87.6898 112.477 84.7616 112.012 81.8732C111.468 78.4802 112.603 74.7153 115.1 74.0712C118.613 73.1615 121.853 75.0207 122.643 75.9503Z" fill="#FFA8A7"/>
<path d="M111.634 87.4043C112.53 88.3339 114.37 88.5862 115.525 88.7987C116.68 89.0112 120.233 89.2436 121.282 86.7137C122.331 84.1839 121.614 82.3645 122.902 81.7536C124.19 81.1427 125.478 80.7443 125.817 80.4256C126.156 80.1069 126.162 75.9436 122.703 73.7856C119.243 71.6276 113.945 71.1296 110.459 75.5054C107.816 78.8852 108.898 84.5491 111.634 87.4043Z" fill="#455A64"/>
<path d="M115.12 88.8319C116.016 88.9116 118.852 88.4667 119.708 87.2981C120.565 86.1294 120.91 84.0378 121.036 82.9422C121.048 82.5107 121.206 82.0961 121.485 81.7666C121.764 81.4371 122.146 81.2124 122.57 81.1295C123.427 80.8573 125.319 79.9277 125.319 79.9277V79.4097C125.929 79.3714 126.541 79.3714 127.152 79.4097C127.55 79.4828 127.331 80.0738 126.322 80.585C125.312 81.0963 122.544 82.0857 122.119 82.4243C121.694 82.7629 121.494 84.1905 121.156 85.7111C120.817 87.2317 119.768 89.5025 115.12 88.8319Z" fill="#37474F"/>
<path d="M123.088 95.12L126.408 93.2144C126.727 92.2516 126.215 91.7668 125.312 91.8266C124.409 91.8864 124.688 91.0099 124.137 90.7642C123.413 90.4322 123.002 90.6181 122.676 90.4654C122.351 90.3127 122.212 89.9276 121.787 89.8811C119.888 89.7018 118.593 92.4109 118.593 92.4109L123.088 95.12Z" fill="#F28F8F"/>
<path d="M100.552 119.502C100.552 119.502 115.22 112.231 117.776 111.056C120.332 109.881 124.343 108.174 126.474 108.174C127.307 108.243 128.087 108.61 128.672 109.208C129.256 109.805 129.605 110.594 129.655 111.428C129.682 112.709 129.609 113.99 129.436 115.259C125.406 116.581 121.288 117.617 117.112 118.36C111.01 119.422 100.552 119.502 100.552 119.502Z" fill="#37474F"/>
<path d="M102.145 115.299C102.145 118.313 101.86 121.448 103.115 123.652C104.37 125.857 111.169 130.956 117.57 129.887C121.753 129.183 134.17 123.466 134.17 123.466C134.17 123.466 140.193 121.255 140.219 119.681C140.259 117.364 140.1 114.097 134.847 114.236C130.06 114.363 115.937 117.311 115.937 117.311L102.145 115.299Z" fill="#455A64"/>
<path d="M106.242 91.4148C108.513 89.0443 110.047 88.8451 111.136 89.1373C113.639 89.8536 116.062 90.8236 118.367 92.0324C118.367 92.0324 117.49 100.518 121.64 102.962V116.189C121.64 116.189 121.514 117.623 119.708 119.051C118.115 120.305 114.509 121.574 110.206 121.215C105.094 120.79 102.145 115.299 102.145 115.299C102.145 115.299 102.013 104.482 102.736 100.186C103.586 95.1731 105.459 92.2382 106.242 91.4148Z" fill="#455A64"/>
<path d="M121.64 103.606C121.64 103.606 119.131 101.614 118.367 99.0243C118.367 99.0243 118.666 103.088 121.64 105.146V103.606Z" fill="#37474F"/>
<path d="M144.874 109.848C146.066 109.897 147.238 109.533 148.194 108.818C148.194 108.818 149.349 106.574 150.77 106.767C150.77 106.767 151.022 105.81 150.438 105.498C149.854 105.186 149.601 105.273 149.362 104.941C149.123 104.609 149.097 103.991 148.034 103.991C147.596 103.991 147.656 103.679 146.593 103.553C145.531 103.427 144.482 105.877 143.705 105.877L144.874 109.848Z" fill="#FFA8A7"/>
<path d="M118.367 92.0323C122.012 92.5967 123.334 93.6791 124.662 94.9075C125.99 96.1359 134.117 104.29 134.117 104.29L143.958 105.704C144.475 106.123 144.854 106.687 145.047 107.324C145.445 108.48 145.086 109.741 144.708 110.04C144.708 110.04 134.947 110.624 133.028 110.259C131.109 109.894 121.607 103.586 121.607 103.586C120.699 102.901 119.937 102.041 119.367 101.057C118.797 100.073 118.43 98.9841 118.287 97.8556C117.67 93.8517 118.367 92.0323 118.367 92.0323Z" fill="#455A64"/>
<path d="M109.615 127.105L94.5359 145.511C94.3685 145.532 94.2 145.543 94.0313 145.544C93.4334 145.554 92.8424 145.414 92.3115 145.139L79.576 137.782L78.7128 137.284C78.2414 137.012 77.8496 135.896 77.8496 134.794V131.693C77.8491 128.508 78.687 125.378 80.2792 122.62C81.8713 119.861 84.1616 117.569 86.9199 115.976L102.125 107.198L118.307 116.541L109.615 127.105Z" fill="#E84C4F"/>
<g opacity="0.1">
<path opacity="0.1" d="M109.615 127.105L94.5359 145.511C94.3685 145.532 94.2 145.543 94.0313 145.544C93.4334 145.554 92.8424 145.414 92.3115 145.139L79.576 137.782L78.7128 137.284C78.2414 137.012 77.8496 135.896 77.8496 134.794V131.693C77.8491 128.508 78.687 125.378 80.2792 122.62C81.8713 119.861 84.1616 117.569 86.9199 115.976L102.125 107.198L118.307 116.541L109.615 127.105Z" fill="black"/>
</g>
<path d="M104.416 133.453L118.287 116.547L102.106 107.205L86.9066 115.976C84.9405 117.114 83.2061 118.612 81.7938 120.392L104.416 133.453Z" fill="#E84C4F"/>
<path d="M118.287 130.119C118.287 131.222 117.902 132.337 117.424 132.609L116.561 133.107L95.7379 145.132C95.359 145.337 94.944 145.465 94.5161 145.511C94.3487 145.532 94.1802 145.543 94.0115 145.544V141.036C94.011 137.849 94.8496 134.719 96.443 131.96C98.0364 129.201 100.328 126.911 103.088 125.319L104.808 124.329L118.287 116.541V130.119Z" fill="#E84C4F"/>
<g opacity="0.2">
<path opacity="0.2" d="M118.287 130.119C118.287 131.222 117.902 132.337 117.424 132.609L116.561 133.107L95.7379 145.132C95.359 145.337 94.944 145.465 94.5161 145.511C94.3487 145.532 94.1802 145.543 94.0115 145.544V141.036C94.011 137.849 94.8496 134.719 96.443 131.96C98.0364 129.201 100.328 126.911 103.088 125.319L104.808 124.329L118.287 116.541V130.119Z" fill="black"/>
</g>
<path d="M122.756 152.895L130.903 152.868L142.563 146.135L131.142 154.389L122.544 154.508L122.756 152.895Z" fill="#E0E0E0"/>
<path d="M102.975 164.488C102.975 164.488 117.663 158.95 118.911 158.3C120.377 157.402 121.767 156.387 123.068 155.265C123.334 154.914 123.458 154.476 123.418 154.037C123.377 153.599 123.174 153.191 122.849 152.895C122.849 152.895 116.873 152.622 115.339 153.094C114.483 153.353 100.658 157.788 100.658 157.788L102.975 164.488Z" fill="#E0E0E0"/>
<path d="M102.318 158.3C101.103 157.257 99.8813 157.689 99.5825 159.256C99.4683 160.12 99.5598 161 99.8494 161.822C100.139 162.645 100.619 163.388 101.249 163.99C102.464 165.033 103.686 164.608 103.985 163.034C104.098 162.169 104.007 161.29 103.717 160.468C103.428 159.645 102.948 158.902 102.318 158.3Z" fill="#455A64"/>
</svg>
