<svg width="32" height="32" viewBox="0 0 32 32" fill="none" xmlns="http://www.w3.org/2000/svg">
<path d="M0 16C0 7.16344 7.16344 0 16 0C24.8366 0 32 7.16344 32 16C32 24.8366 24.8366 32 16 32C7.16344 32 0 24.8366 0 16Z" fill="#E84C4F"/>
<path d="M2 16C2 8.26801 8.26801 2 16 2C23.732 2 30 8.26801 30 16C30 23.732 23.732 30 16 30C8.26801 30 2 23.732 2 16Z" fill="white"/>
<path d="M8 16C8 11.5817 11.5817 8 16 8C20.4183 8 24 11.5817 24 16C24 20.4183 20.4183 24 16 24C11.5817 24 8 20.4183 8 16Z" fill="#E84C4F"/>
</svg>
